<?xml version="1.0" encoding="UTF-8"?>
<svg id="Layer_1" data-name="Layer 1" xmlns="http://www.w3.org/2000/svg" viewBox="0 0 107.03 126.15">
  <defs>
    <style>
      .cls-1 {
        fill: #e5e1da;
      }

      .cls-2 {
        fill: #e0c994;
      }
    </style>
  </defs>
  <path class="cls-2" d="M7.71,0v1.86c2.93.16,5.09,1.34,6.47,3.54,1.38,2.19,3.81,8.12,7.29,17.78l8.43,23.45,7.45,20.71h1.51l15.36-42.25,11.58,30.8,4.37,11.45h1.54l6.34-18.05,4.04-11.5,10.47-29.81c.85-2.31,2.12-3.94,3.81-4.89.94-.55,2.31-.96,4.1-1.22V0h-19.85v1.86c1.95.07,3.42.31,4.39.73,1.76.72,2.64,2,2.64,3.86,0,.52-.08,1.2-.24,2.05-.26,1.5-.75,3.21-1.46,5.13l-12.51,33.94-14.45-37.5c-.52-1.37-.85-2.27-.98-2.71-.13-.44-.2-.95-.2-1.54,0-1.73.75-2.86,2.25-3.42.94-.33,2.67-.5,5.18-.54V0h-26.78v1.86c2.12.03,3.69.28,4.74.73,1.76.75,3.08,2.23,3.96,4.45l4.68,12.26-10.57,28.02L26.79,9.72c-.36-.98-.63-1.77-.81-2.39-.18-.62-.27-1.25-.27-1.9,0-1.46.75-2.47,2.25-3.03.85-.29,2.26-.47,4.25-.54V0H7.71Z"/>
  <path class="cls-1" d="M54.43,46.96c.82,1.46,1.23,2.74,1.23,3.86,0,.93-.19,1.84-.56,2.72-.37.88-.87,1.64-1.48,2.3-.62.65-1.33,1.18-2.13,1.57-.8.39-1.63.59-2.49.59-1.68,0-3.04-.48-4.09-1.43-1.05-.95-1.57-2.3-1.57-4.06,0-1.98.49-3.72,1.48-5.24.99-1.51,2.3-2.83,3.92-3.95,1.62-1.12,3.5-2.06,5.63-2.83,2.13-.76,4.33-1.4,6.61-1.9,2.28-.5,4.54-.89,6.8-1.15,2.26-.26,4.36-.46,6.3-.59,1.94-.13,3.63-.2,5.07-.22,1.44-.02,2.45-.03,3.05-.03v.11c-3.81.75-7.46,2.24-10.95,4.48-3.49,2.24-6.82,5.51-10,9.8-1.23,1.72-2.41,3.5-3.53,5.35-1.12,1.85-2.2,3.72-3.25,5.6-1.05,1.89-2.08,3.75-3.11,5.6-1.03,1.85-2.1,3.67-3.22,5.46-1.12.26-2.74.52-4.87.78-2.13.26-4.57.6-7.34,1.01-2.58.37-4.97.79-7.17,1.26-2.2.47-4.1,1.05-5.68,1.76-1.59.71-2.83,1.6-3.72,2.66s-1.34,2.36-1.34,3.89c0,1.34.3,2.48.9,3.42.6.93,1.37,1.69,2.32,2.27.95.58,2.03,1,3.22,1.26,1.2.26,2.37.39,3.53.39,2.99,0,5.83-.49,8.54-1.46,2.71-.97,5.25-2.32,7.64-4.06,2.39-1.74,4.61-3.8,6.66-6.19,2.05-2.39,3.92-4.98,5.6-7.78,2.2-.48,4.21-1.18,6.02-2.07,1.81-.9,3.43-1.89,4.87-3,1.44-1.1,2.72-2.26,3.84-3.47,1.12-1.21,2.09-2.38,2.91-3.5l-.5-.22c-2.24,2.91-4.72,5.37-7.45,7.36-2.73,2-5.82,3.37-9.3,4.12.75-1.27,2.23-3.86,4.45-7.78,2.22-3.92,5.35-9.24,9.38-15.96,1.19-1.98,2.44-3.65,3.75-5.01,1.31-1.36,2.56-2.46,3.75-3.3,1.19-.84,2.28-1.46,3.25-1.85.97-.39,1.72-.62,2.24-.7.71.08,1.43.17,2.16.28s1.41.17,2.04.17c.71,0,1.27-.11,1.68-.34.41-.22.62-.56.62-1.01,0-.67-.64-1.01-1.9-1.01-.3,0-.7.06-1.2.17s-1.04.22-1.6.34-1.1.22-1.62.34c-.52.11-.93.17-1.23.17-1.27,0-2.89.02-4.87.06-1.98.04-4.14.13-6.5.28-2.35.15-4.83.37-7.42.67-2.6.3-5.15.72-7.67,1.26-2.52.54-4.92,1.2-7.2,1.99-2.28.78-4.28,1.75-5.99,2.88-1.72,1.14-3.09,2.47-4.12,4-1.03,1.53-1.54,3.29-1.54,5.26,0,1.08.2,2.11.59,3.08.39.97.93,1.82,1.62,2.55.69.73,1.51,1.31,2.46,1.74.95.43,1.99.64,3.11.64,1.31,0,2.62-.22,3.95-.67,1.32-.45,2.53-1.07,3.61-1.88,1.08-.8,1.97-1.78,2.66-2.94.69-1.16,1.04-2.44,1.04-3.86,0-.75-.16-1.54-.48-2.38-.32-.84-.64-1.52-.98-2.04l-.45.39h0ZM24.72,82.49c.43-.88.99-1.66,1.68-2.35.69-.69,1.46-1.29,2.32-1.79.86-.5,1.74-.92,2.63-1.26,1.38-.52,2.76-.94,4.14-1.26,1.38-.32,2.75-.59,4.12-.81,1.36-.22,2.73-.43,4.12-.62,1.38-.19,2.76-.39,4.14-.62-1.05,1.6-2.16,3.41-3.33,5.4-1.18,2-2.48,3.87-3.92,5.63-1.44,1.75-3.04,3.23-4.82,4.42-1.77,1.19-3.78,1.79-6.02,1.79-1.72,0-3.1-.52-4.14-1.57-1.04-1.05-1.57-2.41-1.57-4.09,0-1.05.22-2.01.64-2.88h0Z"/>
  <path class="cls-2" d="M0,98.52v.35c.56.03.97.25,1.23.67.26.42.72,1.54,1.38,3.38l1.6,4.45,1.42,3.94h.29l2.92-8.03,2.2,5.85.83,2.17h.29l1.2-3.43.77-2.19,1.99-5.66c.16-.44.4-.75.72-.93.18-.11.44-.18.78-.23v-.35h-3.77v.35c.37.01.65.06.83.14.33.14.5.38.5.73,0,.1-.02.23-.05.39-.05.28-.14.61-.28.97l-2.38,6.45-2.75-7.12c-.1-.26-.16-.43-.19-.51-.02-.08-.04-.18-.04-.29,0-.33.14-.54.43-.65.18-.06.51-.1.98-.1v-.35h-5.09v.35c.4,0,.7.05.9.14.33.14.58.42.75.85l.89,2.33-2.01,5.32-2.75-7.14c-.07-.19-.12-.34-.15-.45-.03-.12-.05-.24-.05-.36,0-.28.14-.47.43-.58.16-.06.43-.09.81-.1v-.35H0ZM19.99,104.81c0-2,.39-3.48,1.18-4.44.79-.96,1.75-1.43,2.89-1.43s2.06.46,2.86,1.38c.8.92,1.21,2.42,1.21,4.49s-.4,3.54-1.19,4.47c-.8.93-1.75,1.4-2.87,1.4s-2.11-.48-2.9-1.43c-.79-.96-1.18-2.43-1.18-4.43h0ZM17.84,104.81c0,1.93.6,3.51,1.79,4.74,1.18,1.21,2.65,1.81,4.43,1.81,1.66,0,3.08-.54,4.26-1.63,1.31-1.22,1.97-2.86,1.97-4.92s-.63-3.65-1.9-4.87c-1.17-1.13-2.61-1.69-4.32-1.69s-3.15.56-4.31,1.68c-1.27,1.22-1.91,2.85-1.91,4.88h0ZM33.14,104.81c0-2,.39-3.48,1.18-4.44.79-.96,1.75-1.43,2.89-1.43s2.06.46,2.86,1.38c.8.92,1.21,2.42,1.21,4.49s-.4,3.54-1.19,4.47c-.8.93-1.75,1.4-2.87,1.4s-2.11-.48-2.9-1.43c-.79-.96-1.18-2.43-1.18-4.43h0ZM30.99,104.81c0,1.93.6,3.51,1.79,4.74,1.18,1.21,2.65,1.81,4.43,1.81,1.66,0,3.08-.54,4.26-1.63,1.31-1.22,1.97-2.86,1.97-4.92s-.63-3.65-1.9-4.87c-1.17-1.13-2.61-1.69-4.32-1.69s-3.15.56-4.31,1.68c-1.27,1.22-1.91,2.85-1.91,4.88h0ZM47.48,109.62v-9.67c0-.32.08-.52.23-.61.15-.09.44-.14.87-.14,1.71,0,3.09.42,4.13,1.26,1.21.98,1.82,2.45,1.82,4.4,0,2.19-.74,3.73-2.21,4.63-.96.59-2.18.88-3.66.88-.48,0-.79-.05-.94-.15-.15-.1-.23-.3-.23-.61h0ZM43.88,111.09h5.28c1.42,0,2.61-.18,3.58-.54.53-.19,1.05-.47,1.54-.84.78-.59,1.36-1.31,1.75-2.16.39-.85.58-1.75.58-2.7,0-2.63-1.08-4.45-3.23-5.47-1.19-.57-2.65-.85-4.38-.85h-5.12v.35c.71.05,1.16.17,1.36.37.2.2.31.64.31,1.34v8.45c0,.71-.11,1.16-.32,1.33-.21.18-.66.3-1.35.37v.35h0ZM56.94,111.09h10.22l.93-3.29h-.48c-.56,1.14-1.13,1.86-1.73,2.13-.59.28-1.74.42-3.43.42-.43,0-.73,0-.89,0-.16,0-.31-.02-.45-.04-.24-.03-.4-.11-.47-.23-.07-.12-.11-.29-.11-.5v-9.13c0-.63.12-1.04.36-1.23.24-.19.71-.31,1.41-.34v-.35h-5.36v.35c.71.05,1.16.18,1.36.39.2.21.31.65.31,1.32v8.45c0,.71-.1,1.16-.31,1.33-.21.18-.66.3-1.36.37v.35h0ZM67.98,111.09h10.27l.86-3.21h-.53c-.49,1.08-1.04,1.76-1.65,2.05-.61.28-1.56.42-2.85.42-1.19,0-1.9-.03-2.14-.1-.24-.07-.36-.29-.36-.67v-4.7h2.93c.8,0,1.32.12,1.54.36.22.24.41.73.55,1.46h.45v-4.39h-.45c-.14.73-.32,1.22-.54,1.46-.22.24-.74.36-1.55.36h-2.93v-4.24c0-.25.03-.42.1-.51.07-.09.24-.13.52-.13h2.59c1.11,0,1.83.12,2.15.37.32.25.56.79.72,1.63h.48l-.06-2.72h-10.09v.35c.71.05,1.16.18,1.36.39.2.21.31.65.31,1.32v8.45c0,.71-.1,1.16-.31,1.33-.21.18-.66.3-1.36.37v.35h0ZM79.22,98.52v.35c.49.02.92.21,1.26.57.35.36.95,1.16,1.81,2.42l2.49,3.65v3.3c0,.83-.1,1.34-.31,1.55-.21.21-.74.33-1.6.38v.35h5.8v-.35c-.83-.04-1.36-.16-1.6-.34-.24-.18-.36-.64-.36-1.38v-3.7l2.81-4.29c.59-.89,1.11-1.5,1.58-1.83.3-.21.65-.32,1.03-.34v-.35h-4.15v.35c.42,0,.72.04.89.09.29.09.44.27.44.54,0,.06-.02.14-.05.26-.03.12-.11.27-.22.45l-2.73,4.17-2.8-4.1c-.13-.2-.21-.36-.25-.48-.04-.12-.06-.22-.06-.3,0-.27.11-.44.33-.52.22-.08.56-.11,1-.1v-.35h-5.32ZM96.4,99.95c0-.48-.15-.89-.44-1.21-.29-.33-.65-.49-1.08-.49s-.7.12-.88.36c-.18.24-.27.48-.27.72,0,.33.11.58.33.74s.45.25.7.25c.06,0,.28-.02.64-.06l.18.06.07.19c0,.38-.15.75-.46,1.11s-.68.67-1.11.92l.18.37c.53-.24,1.02-.62,1.47-1.16.45-.54.67-1.13.67-1.78h0ZM98.5,107.27l.57,4.04h.42c.02-.15.08-.3.15-.44.08-.14.23-.2.45-.2.09,0,.46.11,1.1.33s1.25.33,1.84.33c1.17,0,2.13-.33,2.88-1s1.13-1.5,1.13-2.5c0-.74-.21-1.39-.63-1.93-.43-.54-1.17-1.13-2.21-1.77l-1.67-1.03c-.62-.38-1.08-.75-1.38-1.1-.3-.35-.44-.76-.44-1.25,0-.54.19-.97.58-1.28.39-.31.84-.46,1.36-.46.67,0,1.34.24,2.03.72.68.48,1.18,1.33,1.49,2.55h.45l-.42-4.04h-.39c-.05.2-.12.36-.21.47-.09.11-.25.17-.49.17-.09,0-.43-.11-1.04-.32-.61-.21-1.13-.32-1.56-.32-1.05,0-1.9.32-2.53.96-.64.64-.96,1.43-.96,2.39,0,.72.27,1.39.81,1.99.29.32.68.63,1.17.94l1.62,1.01c.93.58,1.54,1.02,1.83,1.31.44.46.67,1,.67,1.61,0,.69-.22,1.22-.66,1.61-.44.38-.96.58-1.57.58-1.12,0-2.05-.44-2.81-1.33-.43-.51-.81-1.19-1.13-2.04h-.44Z"/>
  <path class="cls-1" d="M15.7,115.84h.16c.35,0,.59.07.72.21.13.14.19.41.19.81v6.15c.01.85-.05,1.44-.19,1.75-.13.32-.36.48-.67.48-.16,0-.37-.09-.63-.26s-.46-.26-.59-.26c-.18,0-.32.06-.43.18-.11.12-.16.29-.16.49,0,.24.11.42.32.56.21.13.51.2.89.2.57,0,1.11-.18,1.61-.53.5-.36.87-.83,1.11-1.41.14-.34.23-.78.29-1.32.06-.54.09-1.36.09-2.46,0-.26,0-.71,0-1.35,0-.64,0-1.14,0-1.52v-.18c0-.71.06-1.14.17-1.3s.33-.24.67-.24h.12v-.53c-.09,0-.22,0-.38.02-.68.04-1.15.05-1.42.05-.25,0-.53,0-.84-.02s-.65-.03-1.02-.05v.53h0ZM22.01,115.83h.13c.3,0,.52.07.64.2.12.13.18.37.18.71,0,.02,0,.13,0,.32,0,.19,0,.37,0,.55s0,.5-.02.98c0,.12,0,.21,0,.26v1.31s-.01.54-.01.54v.59c0,.86-.06,1.38-.18,1.58-.12.2-.34.3-.67.3h-.13s-.08-.01-.08-.01v.52c.19,0,.46-.02.83-.03,1.05-.04,1.82-.05,2.3-.05.43,0,.91,0,1.46.02.55.01,1.28.03,2.2.06.06-.32.14-.65.23-.99.09-.34.2-.7.33-1.07l-.54-.17c-.19.55-.44.93-.75,1.12-.31.2-.93.29-1.87.29-.31,0-.6,0-.86-.02-.26-.01-.48-.03-.66-.06,0-.5-.01-.94-.02-1.3,0-.37,0-.72,0-1.07v-.67h1.32c.72,0,1.17.06,1.37.18s.29.34.29.68v.07l.49-.04c-.01-.23-.02-.43-.03-.59s0-.3,0-.4,0-.31.02-.6c.01-.29.02-.54.02-.74l-.43-.04c-.01.3-.1.5-.27.6-.17.11-.52.16-1.06.16-.11,0-.34,0-.68,0-.34,0-.62,0-.85,0h-.17c0-.43.01-.89.02-1.36,0-.47.01-.97.02-1.48.35-.01.64-.02.88-.03s.43,0,.58,0c.8,0,1.34.09,1.61.26.27.17.43.5.48.99l.53-.07c-.04-.34-.08-.67-.1-1-.02-.33-.04-.67-.05-1-.43.03-.89.05-1.38.06-.49.01-1.1.02-1.81.02-.43,0-.92,0-1.48-.02-.56-.01-1.18-.03-1.84-.06v.53h0ZM34.27,117.19v-.04c-.17-.45-.25-.75-.25-.88,0-.15.05-.26.14-.33.1-.07.24-.11.44-.11h.13v-.53c-.12,0-.28.01-.5.02-.58.03-.97.05-1.17.05-.17,0-.4,0-.67-.02-.28-.01-.61-.03-1.01-.05v.53h.03s.16-.02.16-.02c.39,0,.81.65,1.25,1.95.15.44.27.79.36,1.05l.59,1.63.2.55c.57,1.58.88,2.5.93,2.76h1.11c.04-.16.09-.33.14-.51.06-.18.14-.41.26-.7l1.44-3.63,1.24,3.72c.08.23.14.43.19.6.05.18.09.35.13.52h1.11c.15-.55.48-1.48.98-2.79.11-.29.19-.5.25-.64l.5-1.32c.11-.3.25-.7.43-1.2.46-1.31.89-1.97,1.31-1.97h.11s.06.01.06.01v-.53c-.09,0-.21,0-.36.02-.54.04-.91.05-1.1.05-.2,0-.57-.02-1.12-.05-.15,0-.27-.01-.36-.02v.53h.16c.26,0,.44.04.54.11.1.07.15.2.15.37,0,.29-.48,1.8-1.43,4.53l-.32.93-1.42-4.42c-.09-.28-.16-.5-.2-.67-.04-.16-.06-.29-.06-.38,0-.18.05-.3.14-.37.09-.07.25-.11.48-.11h.11s.12.01.12.01v-.53c-.38.02-.71.04-.99.05s-.5.02-.68.02c-.27,0-.75-.02-1.44-.06-.13,0-.23-.01-.3-.01v.53h.11s.12-.01.12-.01c.21,0,.38.05.49.15.11.1.21.31.32.64l.34,1.05-1.62,4.11-1.57-4.59h0ZM46.47,115.83h.13c.3,0,.52.07.64.2.12.13.18.37.18.71,0,.02,0,.13,0,.32,0,.19,0,.37,0,.55s0,.5-.02.98c0,.12,0,.21,0,.26v1.31s-.01.54-.01.54v.59c0,.86-.06,1.38-.18,1.58-.12.2-.34.3-.67.3h-.13s-.08-.01-.08-.01v.52c.19,0,.46-.02.83-.03,1.05-.04,1.82-.05,2.3-.05.43,0,.91,0,1.46.02.55.01,1.28.03,2.2.06.06-.32.14-.65.23-.99.09-.34.2-.7.33-1.07l-.54-.17c-.19.55-.44.93-.75,1.12-.31.2-.93.29-1.87.29-.31,0-.6,0-.86-.02-.26-.01-.48-.03-.66-.06,0-.5-.01-.94-.02-1.3,0-.37,0-.72,0-1.07v-.67h1.32c.72,0,1.17.06,1.37.18s.29.34.29.68v.07l.49-.04c-.01-.23-.02-.43-.03-.59s0-.3,0-.4,0-.31.02-.6c.01-.29.02-.54.02-.74l-.43-.04c-.01.3-.1.5-.27.6-.17.11-.52.16-1.06.16-.11,0-.34,0-.68,0-.34,0-.62,0-.85,0h-.17c0-.43.01-.89.02-1.36,0-.47.01-.97.02-1.48.35-.01.64-.02.88-.03s.43,0,.58,0c.8,0,1.34.09,1.61.26.27.17.43.5.48.99l.53-.07c-.04-.34-.08-.67-.1-1-.02-.33-.04-.67-.05-1-.43.03-.89.05-1.38.06-.49.01-1.1.02-1.81.02-.43,0-.92,0-1.48-.02-.56-.01-1.18-.03-1.84-.06v.53h0ZM56.31,115.83h.13c.32,0,.54.11.65.32.12.21.17.67.17,1.38,0,.11,0,.3,0,.58,0,.28,0,.5,0,.68v1.28c-.01.09-.01.23-.02.41,0,1.39-.07,2.19-.18,2.41-.05.1-.13.17-.25.21-.11.04-.28.06-.49.06h-.16v.52c.49-.02.98-.04,1.47-.05.49-.01.99-.02,1.47-.02s1.04,0,1.63.02c.59.01,1.24.03,1.93.05.07-.37.15-.73.25-1.09.1-.36.2-.72.33-1.07l-.54-.16c-.2.57-.45.96-.75,1.16-.3.2-.95.3-1.93.3-.26,0-.64-.02-1.14-.05h-.04s-.01-4.12-.01-4.12c0-.17,0-.38,0-.65,0-.27,0-.45,0-.55,0-.69.06-1.13.18-1.32.12-.2.34-.29.67-.29h.09s.1.01.1.01v-.53c-.39.02-.73.03-1.02.04-.29,0-.56.01-.8.01s-.49,0-.79-.01c-.29,0-.61-.02-.94-.04v.52h0ZM65.48,115.83h.13c.3,0,.52.07.64.2.12.13.18.37.18.71,0,.02,0,.13,0,.32,0,.19,0,.37,0,.55s0,.5-.02.98c0,.12,0,.21,0,.26v1.31s-.01.54-.01.54v.59c0,.86-.06,1.38-.18,1.58-.12.2-.34.3-.67.3h-.13s-.08-.01-.08-.01v.52c.19,0,.46-.02.83-.03,1.05-.04,1.82-.05,2.3-.05.43,0,.91,0,1.46.02.55.01,1.28.03,2.2.06.06-.32.14-.65.23-.99.09-.34.2-.7.33-1.07l-.54-.17c-.19.55-.44.93-.75,1.12-.31.2-.93.29-1.87.29-.31,0-.6,0-.86-.02-.26-.01-.48-.03-.66-.06,0-.5-.01-.94-.02-1.3,0-.37,0-.72,0-1.07v-.67h1.32c.72,0,1.17.06,1.37.18s.29.34.29.68v.07l.49-.04c-.01-.23-.02-.43-.03-.59s0-.3,0-.4,0-.31.02-.6c.01-.29.02-.54.02-.74l-.43-.04c-.01.3-.1.5-.27.6-.17.11-.52.16-1.06.16-.11,0-.34,0-.68,0-.34,0-.62,0-.85,0h-.17c0-.43.01-.89.02-1.36,0-.47.01-.97.02-1.48.35-.01.64-.02.88-.03s.43,0,.58,0c.8,0,1.34.09,1.61.26.27.17.43.5.48.99l.53-.07c-.04-.34-.08-.67-.1-1-.02-.33-.04-.67-.05-1-.43.03-.89.05-1.38.06-.49.01-1.1.02-1.81.02-.43,0-.92,0-1.48-.02-.56-.01-1.18-.03-1.84-.06v.53h0ZM77.82,117.5c0-.46,0-.91,0-1.34.13-.02.27-.04.41-.05.14-.01.29-.02.46-.02.55,0,.99.15,1.32.45.33.3.5.7.5,1.19,0,.37-.08.7-.24.98-.16.28-.41.53-.75.75-.15.01-.29.02-.43.03-.14,0-.27,0-.39,0-.1,0-.22,0-.36,0-.14,0-.32-.01-.53-.03,0-.84,0-1.5,0-1.96h0ZM75.19,123.67c.61-.03,1.01-.04,1.23-.05.21,0,.37,0,.48,0,.34,0,.66,0,.98.01.32,0,.64.02.96.04v-.53h-.16c-.34,0-.57-.08-.69-.23-.12-.15-.18-.53-.18-1.13v-1.56c.18,0,.36,0,.54,0,.19,0,.4,0,.64-.02.3.47.65,1.03,1.05,1.69.4.66.65,1.05.75,1.17.21.26.46.44.73.54s.64.16,1.12.16c.13,0,.29,0,.46-.01.18,0,.38-.02.62-.04v-.49h-.07s-.07.01-.07.01c-.29,0-.55-.11-.81-.33-.25-.22-.65-.75-1.2-1.61l-1.15-1.62c.56-.25.98-.55,1.26-.9.28-.35.42-.76.42-1.22,0-.69-.28-1.24-.84-1.64-.56-.4-1.32-.6-2.29-.6-.15,0-.44,0-.87.03-.43.02-.79.03-1.08.03-.2,0-.44,0-.71-.01-.27,0-.62-.02-1.04-.04v.52h.12c.33,0,.55.07.67.22.12.14.18.46.18.96,0,.38,0,.71,0,.98,0,.27,0,.55,0,.83l-.02,1.31v1.05c0,.91-.06,1.46-.17,1.68s-.33.32-.65.32h-.14s-.09-.01-.09-.01v.52h0ZM90.62,115.28c-.35-.06-.69-.09-1.02-.09-.96,0-1.74.23-2.33.7-.59.46-.88,1.08-.88,1.83,0,.55.16,1.01.48,1.38.32.37.85.69,1.6.97.12.05.31.11.54.19,1.07.38,1.61.85,1.61,1.41,0,.39-.15.71-.46.94s-.72.35-1.25.35c-.65,0-1.14-.14-1.47-.43-.33-.29-.57-.79-.72-1.51l-.64.16c.08.33.14.65.17.97.04.31.06.62.06.92v.16s-.01.17-.01.17c.36.14.72.24,1.1.31.38.07.75.11,1.11.11,1.12,0,2-.25,2.65-.76.65-.51.98-1.19.98-2.04,0-.47-.13-.87-.38-1.21-.26-.34-.64-.62-1.15-.83-.23-.09-.58-.21-1.05-.37-.47-.16-.8-.29-.99-.39-.25-.13-.43-.28-.54-.45s-.18-.37-.18-.61c0-.35.14-.63.43-.83.29-.2.68-.3,1.18-.3.54,0,.97.13,1.28.39s.5.64.57,1.15l.61-.1c-.07-.32-.12-.62-.15-.92-.03-.3-.05-.59-.05-.88v-.13c-.39-.13-.76-.22-1.1-.28h0Z"/>
</svg>