<?xml version="1.0" encoding="UTF-8"?>
<svg id="Layer_1" xmlns="http://www.w3.org/2000/svg" version="1.1" viewBox="0 0 253.69 91.7">
  <!-- Generator: Adobe Illustrator 30.5.1, SVG Export Plug-In . SVG Version: 2.1.4 Build 3)  -->
  <defs>
    <style>
      .st0, .st1, .st2 {
        display: none;
      }

      .st0, .st3 {
        fill: #b4975a;
      }

      .st1 {
        fill: none;
      }

      .st4, .st2 {
        fill: #9b9fa2;
      }
    </style>
  </defs>
  <g>
    <path class="st3" d="M0,0v1.86c2.93.16,5.09,1.34,6.47,3.54,1.38,2.19,3.81,8.12,7.29,17.78l8.43,23.45,7.45,20.71h1.51l15.36-42.25,11.58,30.8,4.37,11.45h1.54l6.34-18.05,4.04-11.5,10.47-29.81c.85-2.31,2.12-3.94,3.81-4.89.94-.55,2.31-.96,4.1-1.22V0h-19.85v1.86c1.95.07,3.42.31,4.39.73,1.76.72,2.64,2,2.64,3.86,0,.52-.08,1.2-.24,2.05-.26,1.5-.75,3.21-1.46,5.13l-12.51,33.94-14.45-37.5c-.52-1.37-.85-2.27-.98-2.71s-.2-.95-.2-1.54c0-1.73.75-2.86,2.25-3.42.94-.33,2.67-.5,5.18-.54V0h-26.78v1.86c2.12.03,3.69.28,4.74.73,1.76.75,3.08,2.23,3.96,4.45l4.68,12.26-10.57,28.02L19.08,9.72c-.36-.98-.63-1.77-.81-2.39-.18-.62-.27-1.25-.27-1.9,0-1.46.75-2.47,2.25-3.03.85-.29,2.26-.47,4.25-.54V0H0Z"/>
    <path class="st4" d="M46.72,46.96c.82,1.46,1.23,2.74,1.23,3.86,0,.93-.19,1.84-.56,2.72-.37.88-.87,1.64-1.48,2.3-.62.65-1.33,1.18-2.13,1.57s-1.63.59-2.49.59c-1.68,0-3.04-.48-4.09-1.43s-1.57-2.3-1.57-4.06c0-1.98.49-3.72,1.48-5.24.99-1.51,2.3-2.83,3.92-3.95,1.62-1.12,3.5-2.06,5.63-2.83,2.13-.76,4.33-1.4,6.61-1.9,2.28-.5,4.54-.89,6.8-1.15,2.26-.26,4.36-.46,6.3-.59s3.63-.2,5.07-.22,2.45-.03,3.05-.03v.11c-3.81.75-7.46,2.24-10.95,4.48-3.49,2.24-6.82,5.51-10,9.8-1.23,1.72-2.41,3.5-3.53,5.35s-2.2,3.72-3.25,5.6c-1.05,1.89-2.08,3.75-3.11,5.6-1.03,1.85-2.1,3.67-3.22,5.46-1.12.26-2.74.52-4.87.78-2.13.26-4.57.6-7.34,1.01-2.58.37-4.97.79-7.17,1.26s-4.1,1.05-5.68,1.76c-1.59.71-2.83,1.6-3.72,2.66s-1.34,2.36-1.34,3.89c0,1.34.3,2.48.9,3.42.6.93,1.37,1.69,2.32,2.27.95.58,2.03,1,3.22,1.26,1.2.26,2.37.39,3.53.39,2.99,0,5.83-.49,8.54-1.46s5.25-2.32,7.64-4.06,4.61-3.8,6.66-6.19,3.92-4.98,5.6-7.78c2.2-.48,4.21-1.18,6.02-2.07,1.81-.9,3.43-1.89,4.87-3,1.44-1.1,2.72-2.26,3.84-3.47,1.12-1.21,2.09-2.38,2.91-3.5l-.5-.22c-2.24,2.91-4.72,5.37-7.45,7.36-2.73,2-5.82,3.37-9.3,4.12.75-1.27,2.23-3.86,4.45-7.78s5.35-9.24,9.38-15.96c1.19-1.98,2.44-3.65,3.75-5.01s2.56-2.46,3.75-3.3,2.28-1.46,3.25-1.85,1.72-.62,2.24-.7c.71.08,1.43.17,2.16.28s1.41.17,2.04.17c.71,0,1.27-.11,1.68-.34.41-.22.62-.56.62-1.01,0-.67-.64-1.01-1.9-1.01-.3,0-.7.06-1.2.17s-1.04.22-1.6.34-1.1.22-1.62.34c-.52.11-.93.17-1.23.17-1.27,0-2.89.02-4.87.06s-4.14.13-6.5.28c-2.35.15-4.83.37-7.42.67-2.6.3-5.15.72-7.67,1.26-2.52.54-4.92,1.2-7.2,1.99-2.28.78-4.28,1.75-5.99,2.88-1.72,1.14-3.09,2.47-4.12,4s-1.54,3.29-1.54,5.26c0,1.08.2,2.11.59,3.08s.93,1.82,1.62,2.55,1.51,1.31,2.46,1.74,1.99.64,3.11.64c1.31,0,2.62-.22,3.95-.67,1.32-.45,2.53-1.07,3.61-1.88,1.08-.8,1.97-1.78,2.66-2.94s1.04-2.44,1.04-3.86c0-.75-.16-1.54-.48-2.38s-.64-1.52-.98-2.04l-.45.39h.02ZM17.01,82.49c.43-.88.99-1.66,1.68-2.35.69-.69,1.46-1.29,2.32-1.79.86-.5,1.74-.92,2.63-1.26,1.38-.52,2.76-.94,4.14-1.26s2.75-.59,4.12-.81c1.36-.22,2.73-.43,4.12-.62,1.38-.19,2.76-.39,4.14-.62-1.05,1.6-2.16,3.41-3.33,5.4-1.18,2-2.48,3.87-3.92,5.63-1.44,1.75-3.04,3.23-4.82,4.42-1.77,1.19-3.78,1.79-6.02,1.79-1.72,0-3.1-.52-4.14-1.57-1.04-1.05-1.57-2.41-1.57-4.09,0-1.05.22-2.01.64-2.88h.01Z"/>
  </g>
  <g>
    <path class="st1" d="M143.28,46.86c-2.11-1.71-4.92-2.56-8.39-2.56-.87,0-1.46.1-1.77.28-.3.18-.47.59-.47,1.24v19.65l.02-.02c0,.63.16,1.04.47,1.24.3.2.93.3,1.91.3,3.01,0,5.49-.59,7.44-1.79,2.99-1.83,4.49-4.96,4.49-9.41,0-3.96-1.24-6.95-3.7-8.94Z"/>
    <path class="st1" d="M111.78,43.77c-2.32,0-4.27.96-5.87,2.91s-2.4,4.96-2.4,9.02v.02c0,4.06.79,7.05,2.4,9,1.61,1.93,3.62,2.91,5.89,2.91s4.21-.96,5.83-2.85c1.61-1.89,2.42-4.88,2.42-9.08s-.83-7.26-2.46-9.12c-1.63-1.87-3.5-2.8-5.81-2.8Z"/>
    <path class="st1" d="M85.06,43.77c-2.32,0-4.27.96-5.87,2.91-1.61,1.95-2.4,4.96-2.4,9.02v.02c0,4.06.79,7.05,2.4,9,1.61,1.93,3.62,2.91,5.89,2.91s4.21-.96,5.83-2.85c1.61-1.89,2.42-4.88,2.42-9.08s-.83-7.26-2.46-9.12c-1.63-1.87-3.5-2.8-5.81-2.8Z"/>
    <path class="st3" d="M111.8,42.36c-3.48,0-6.4,1.14-8.76,3.41-2.58,2.48-3.88,5.79-3.88,9.92h-.02c0,3.92,1.22,7.13,3.64,9.63,2.4,2.46,5.39,3.68,9,3.68,3.37,0,6.26-1.1,8.66-3.31,2.66-2.48,4-5.81,4-10s-1.28-7.42-3.86-9.9c-2.38-2.3-5.3-3.43-8.78-3.43ZM117.63,64.78c-1.63,1.89-3.56,2.85-5.83,2.85s-4.29-.98-5.89-2.91c-1.61-1.95-2.4-4.94-2.4-9v-.02c0-4.06.79-7.07,2.4-9.02s3.56-2.91,5.87-2.91,4.19.93,5.81,2.8c1.63,1.87,2.46,4.92,2.46,9.12s-.81,7.19-2.42,9.08Z"/>
    <path class="st0" d="M64.31,43.6c.75.02,1.32.12,1.69.28.67.28,1.02.77,1.02,1.48,0,.2-.04.47-.1.79-.1.57-.28,1.24-.57,1.97l-4.84,13.11-5.59-14.47c-.2-.53-.33-.87-.39-1.04-.04-.16-.08-.37-.08-.59,0-.67.28-1.1.87-1.32.37-.12,1.04-.2,1.99-.2v-.71h-10.34v.71c.81,0,1.42.1,1.83.28.67.28,1.18.85,1.52,1.73l1.81,4.74-4.08,10.81-5.59-14.51c-.14-.39-.24-.69-.3-.91-.06-.24-.1-.49-.1-.73,0-.57.28-.96.87-1.18.33-.12.87-.18,1.65-.2v-.71h-9.41v.69c1.14.06,1.97.51,2.5,1.36.53.85,1.46,3.13,2.8,6.87l3.25,9.04,2.89,8.01h.59l5.93-16.32,4.47,11.89,1.69,4.41h.59l2.44-6.97,1.56-4.45,4.04-11.5c.33-.89.81-1.52,1.46-1.89.37-.22.89-.37,1.59-.47v-.71h-7.66v.71Z"/>
    <path class="st3" d="M85.08,42.36c-3.48,0-6.4,1.14-8.76,3.41-2.58,2.48-3.88,5.79-3.88,9.92h-.02c0,3.92,1.22,7.13,3.64,9.63,2.4,2.46,5.39,3.68,9,3.68,3.37,0,6.26-1.1,8.66-3.31,2.66-2.48,4-5.81,4-10s-1.28-7.42-3.86-9.9c-2.38-2.3-5.3-3.43-8.78-3.43ZM90.91,64.78c-1.63,1.89-3.56,2.85-5.83,2.85s-4.29-.98-5.89-2.91c-1.61-1.95-2.4-4.94-2.4-9v-.02c0-4.06.79-7.07,2.4-9.02,1.61-1.95,3.56-2.91,5.87-2.91s4.19.93,5.81,2.8c1.63,1.87,2.46,4.92,2.46,9.12s-.81,7.19-2.42,9.08Z"/>
    <path class="st3" d="M214.96,43.6c.85,0,1.46.08,1.81.18.59.18.89.55.89,1.1,0,.12-.04.28-.1.53s-.22.55-.45.91l-5.55,8.47-5.69-8.33c-.26-.41-.43-.73-.51-.98-.08-.24-.12-.45-.12-.61,0-.55.22-.89.67-1.06.45-.16,1.14-.22,2.03-.2v-.71h-10.79v.71c1,.04,1.87.43,2.56,1.16.71.73,1.93,2.36,3.68,4.92l5.06,7.42v6.71c0,1.69-.2,2.72-.63,3.15s-1.5.67-3.25.77v.71h11.79v-.71c-1.69-.08-2.76-.33-3.25-.69s-.73-1.3-.73-2.8v-7.52l5.71-8.72c1.2-1.81,2.26-3.05,3.21-3.72.61-.43,1.32-.65,2.09-.69v-.71h-8.43v.71Z"/>
    <path class="st3" d="M228.98,42.36c-.87,0-1.42.24-1.79.73-.37.49-.55.98-.55,1.46,0,.67.22,1.18.67,1.5.45.33.91.51,1.42.51.12,0,.57-.04,1.3-.12l.37.12.14.39c0,.77-.3,1.52-.93,2.26-.63.73-1.38,1.36-2.26,1.87l.37.75c1.08-.49,2.07-1.26,2.99-2.36s1.36-2.3,1.36-3.62v-.04c0-.98-.3-1.81-.89-2.46-.59-.67-1.32-1-2.19-1Z"/>
    <path class="st3" d="M252.41,57.91c-.87-1.1-2.38-2.3-4.49-3.6l-3.39-2.09c-1.26-.77-2.19-1.52-2.8-2.24-.61-.71-.89-1.54-.89-2.54,0-1.1.39-1.97,1.18-2.6.79-.63,1.71-.93,2.76-.93,1.36,0,2.72.49,4.13,1.46,1.38.98,2.4,2.7,3.03,5.18h.91l-.85-8.21h-.79c-.1.41-.24.73-.43.96-.18.22-.51.35-1,.35-.18,0-.87-.22-2.11-.65-1.24-.43-2.3-.65-3.17-.65-2.13,0-3.86.65-5.14,1.95-1.3,1.3-1.95,2.91-1.95,4.86,0,1.46.55,2.82,1.65,4.04.59.65,1.38,1.28,2.38,1.91l3.29,2.05c1.89,1.18,3.13,2.07,3.72,2.66.89.93,1.36,2.03,1.36,3.27,0,1.4-.45,2.48-1.34,3.27-.89.77-1.95,1.18-3.19,1.18-2.28,0-4.17-.89-5.71-2.7-.87-1.04-1.65-2.42-2.3-4.15h-.91s1.16,8.21,1.16,8.21h.85c.04-.3.16-.61.3-.89.16-.28.47-.41.91-.41.18,0,.93.22,2.24.67,1.3.45,2.54.67,3.74.67,2.38,0,4.33-.67,5.85-2.03,1.52-1.36,2.3-3.05,2.3-5.08,0-1.5-.43-2.82-1.28-3.92Z"/>
    <path class="st3" d="M173.56,61.77c-1.14,2.32-2.3,3.78-3.52,4.33-1.2.57-3.54.85-6.97.85h-1.81c-.33,0-.63-.04-.91-.08-.49-.06-.81-.22-.96-.47s-.22-.59-.22-1.02v-18.55c0-1.28.24-2.11.73-2.5.49-.39,1.44-.63,2.87-.69v-.71h-10.89v.71c1.44.1,2.36.37,2.76.79.41.43.63,1.32.63,2.68v17.17c0,1.44-.2,2.36-.63,2.7-.43.37-1.34.61-2.76.75v.71h20.77l1.89-6.69h-.98Z"/>
    <path class="st3" d="M144.64,44.66c-2.42-1.16-5.39-1.73-8.9-1.73h-10.41v.71c1.44.1,2.36.35,2.76.75.41.41.63,1.3.63,2.72v17.17c0,1.44-.22,2.36-.65,2.7-.43.37-1.34.61-2.74.75v.71h10.73c2.89,0,5.3-.37,7.28-1.1,1.08-.39,2.13-.96,3.13-1.71,1.59-1.2,2.76-2.66,3.56-4.39.79-1.73,1.18-3.56,1.18-5.49,0-5.34-2.19-9.04-6.56-11.12ZM142.49,65.21c-1.95,1.2-4.43,1.79-7.44,1.79-.98,0-1.61-.1-1.91-.3-.3-.2-.47-.61-.47-1.24l-.02.02v-19.65c0-.65.16-1.06.47-1.24.3-.18.89-.28,1.77-.28,3.48,0,6.28.85,8.39,2.56,2.46,1.99,3.7,4.98,3.7,8.94,0,4.45-1.5,7.58-4.49,9.41Z"/>
    <path class="st3" d="M192.5,66.1c-1.24.57-3.17.85-5.79.85-2.42,0-3.86-.06-4.35-.2-.49-.14-.73-.59-.73-1.36v-9.55h5.95c1.63,0,2.68.24,3.13.73.45.49.83,1.48,1.12,2.97h.91v-8.92h-.91c-.28,1.48-.65,2.48-1.1,2.97s-1.5.73-3.15.73h-5.95v-8.62c0-.51.06-.85.2-1.04.14-.18.49-.26,1.06-.26h5.26c2.26,0,3.72.24,4.37.75.65.51,1.14,1.61,1.46,3.31h.98l-.12-5.53h-20.51v.71c1.44.1,2.36.37,2.76.79.41.43.63,1.32.63,2.68v17.17c0,1.44-.2,2.36-.63,2.7-.43.37-1.34.61-2.76.75v.71h20.85l1.75-6.52h-1.08c-1,2.19-2.11,3.58-3.35,4.17Z"/>
  </g>
  <g>
    <path class="st1" d="M169.07,75.81c-.67-.61-1.56-.91-2.68-.91-.35,0-.65.02-.93.04-.28.02-.57.06-.83.1v2.72h-.02v3.98c.43.04.79.06,1.08.06h1.52c.28-.02.57-.04.87-.06.69-.45,1.2-.96,1.52-1.52.33-.57.49-1.24.49-1.99,0-1-.35-1.81-1.02-2.42Z"/>
    <path class="st4" d="M93.25,73.45c-.41,0-1.16-.04-2.28-.1-.3,0-.55-.02-.73-.04v1.08h.33c.53,0,.89.08,1.1.22.2.14.3.41.3.75,0,.59-.98,3.66-2.91,9.21l-.65,1.89-2.89-8.98c-.18-.57-.33-1.02-.41-1.36-.08-.33-.12-.59-.12-.77,0-.37.1-.61.28-.75.18-.14.51-.22.98-.22h.22l.24.02v-1.08c-.77.04-1.44.08-2.01.1s-1.02.04-1.38.04c-.55,0-1.52-.04-2.93-.12-.26,0-.47-.02-.61-.02v1.08h.22l.24-.02c.43,0,.77.1,1,.3.22.2.43.63.65,1.3l.69,2.13-3.29,8.35-3.19-9.33v-.08c-.35-.91-.51-1.52-.51-1.79,0-.3.1-.53.28-.67.2-.14.49-.22.89-.22h.26v-1.08c-.24,0-.57.02-1.02.04-1.18.06-1.97.1-2.38.1-.35,0-.81,0-1.36-.04-.57-.02-1.24-.06-2.05-.1v1.08h.06l.33-.04c.79,0,1.65,1.32,2.54,3.96.3.89.55,1.61.73,2.13l1.2,3.31.41,1.12c1.16,3.21,1.79,5.08,1.89,5.61h2.26c.08-.33.18-.67.28-1.04.12-.37.28-.83.53-1.42l2.93-7.38,2.52,7.56c.16.47.28.87.39,1.22.1.37.18.71.26,1.06h2.26c.3-1.12.98-3.01,1.99-5.67.22-.59.39-1.02.51-1.3l1.02-2.68c.22-.61.51-1.42.87-2.44.93-2.66,1.81-4,2.66-4h.22l.12.02v-1.08c-.18,0-.43,0-.73.04-1.1.08-1.85.1-2.24.1Z"/>
    <path class="st4" d="M112.94,88.06c-.63.41-1.89.59-3.8.59-.63,0-1.22,0-1.75-.04-.53-.02-.98-.06-1.34-.12,0-1.02-.02-1.91-.04-2.64v-3.54h2.68c1.46,0,2.38.12,2.78.37s.59.69.59,1.38v.14l1-.08c-.02-.47-.04-.87-.06-1.2-.02-.33,0-.61,0-.81s0-.63.04-1.22c.02-.59.04-1.1.04-1.5l-.87-.08c-.02.61-.2,1.02-.55,1.22-.35.22-1.06.33-2.15.33h-3.45c0-.87.02-1.81.04-2.76,0-.96.02-1.97.04-3.01.71-.02,1.3-.04,1.79-.06s.87,0,1.18,0c1.63,0,2.72.18,3.27.53.55.35.87,1.02.98,2.01l1.08-.14c-.08-.69-.16-1.36-.2-2.03s-.08-1.36-.1-2.03c-.87.06-1.81.1-2.8.12-1,.02-2.24.04-3.68.04-.87,0-1.87,0-3.01-.04-1.14-.02-2.4-.06-3.74-.12v1.08l.02-.06h.26c.61,0,1.06.14,1.3.41.24.26.37.75.37,1.44v1.77c0,.37,0,1.02-.04,1.99v3.19l-.02,1.1v1.2c0,1.75-.12,2.8-.37,3.21-.24.41-.69.61-1.36.61h-.26l-.16-.02v1.06c.39,0,.93-.04,1.69-.06,2.13-.08,3.7-.1,4.67-.1.87,0,1.85,0,2.97.04,1.12.02,2.6.06,4.47.12.12-.65.28-1.32.47-2.01.18-.69.41-1.42.67-2.17l-1.1-.35c-.39,1.12-.89,1.89-1.52,2.28Z"/>
    <polygon class="st4" points="120.92 74.38 120.92 74.36 120.9 74.36 120.92 74.38"/>
    <path class="st4" d="M63.23,88.06c-.63.41-1.89.59-3.8.59-.63,0-1.22,0-1.75-.04-.53-.02-.98-.06-1.34-.12,0-1.02-.02-1.91-.04-2.64v-3.54h2.68c1.46,0,2.38.12,2.78.37.41.24.59.69.59,1.38v.14l1-.08c-.02-.47-.04-.87-.06-1.2-.02-.33,0-.61,0-.81s0-.63.04-1.22c.02-.59.04-1.1.04-1.5l-.87-.08c-.02.61-.2,1.02-.55,1.22-.35.22-1.06.33-2.15.33h-3.45c0-.87.02-1.81.04-2.76,0-.96.02-1.97.04-3.01.71-.02,1.3-.04,1.79-.06.49-.02.87,0,1.18,0,1.63,0,2.72.18,3.27.53.55.35.87,1.02.98,2.01l1.08-.14c-.08-.69-.16-1.36-.2-2.03s-.08-1.36-.1-2.03c-.87.06-1.81.1-2.8.12s-2.24.04-3.68.04c-.87,0-1.87,0-3.01-.04-1.14-.02-2.4-.06-3.74-.12v1.08l.02-.06h.26c.61,0,1.06.14,1.3.41.24.26.37.75.37,1.44v1.77c0,.37,0,1.02-.04,1.99v3.19l-.02,1.1v1.2c0,1.75-.12,2.8-.37,3.21-.24.41-.69.61-1.36.61h-.26l-.16-.02v1.06c.39,0,.93-.04,1.69-.06,2.13-.08,3.7-.1,4.67-.1.87,0,1.85,0,2.97.04,1.12.02,2.6.06,4.47.12.12-.65.28-1.32.47-2.01.18-.69.41-1.42.67-2.17l-1.1-.35c-.39,1.12-.89,1.89-1.52,2.28Z"/>
    <path class="st2" d="M42.18,73.45c-.51,0-1.08,0-1.71-.04-.63-.04-1.32-.06-2.07-.1v1.08h-.02s.33,0,.33,0c.71,0,1.2.14,1.46.43.26.28.39.83.39,1.65v12.5c.02,1.73-.1,2.93-.39,3.56-.26.65-.73.98-1.36.98-.33,0-.75-.18-1.28-.53-.53-.35-.93-.53-1.2-.53-.37,0-.65.12-.87.37-.22.24-.33.59-.33,1,0,.49.22.85.65,1.14.43.26,1.04.41,1.81.41,1.16,0,2.26-.37,3.27-1.08,1.02-.73,1.77-1.69,2.26-2.87.28-.69.47-1.59.59-2.68.12-1.1.18-2.76.18-5v-6.2c0-1.44.12-2.32.35-2.64.22-.33.67-.49,1.36-.49h.24v-1.08c-.18,0-.45,0-.77.04-1.38.08-2.34.1-2.89.1Z"/>
    <path class="st4" d="M192.95,82.45c-.53-.69-1.3-1.26-2.34-1.69-.47-.18-1.18-.43-2.13-.75-.96-.33-1.63-.59-2.01-.79-.51-.26-.87-.57-1.1-.91-.22-.35-.37-.75-.37-1.24,0-.71.28-1.28.87-1.69s1.38-.61,2.4-.61c1.1,0,1.97.26,2.6.79.63.53,1.02,1.3,1.16,2.34l1.24-.2c-.14-.65-.24-1.26-.3-1.87-.06-.61-.1-1.2-.1-1.79v-.26c-.79-.26-1.54-.45-2.24-.57v.04c-.71-.12-1.4-.18-2.07-.18-1.95,0-3.54.47-4.74,1.42-1.2.93-1.79,2.19-1.79,3.72,0,1.12.33,2.05.98,2.8s1.73,1.4,3.25,1.97c.24.1.63.22,1.1.39,2.17.77,3.27,1.73,3.27,2.87,0,.79-.3,1.44-.93,1.91-.63.47-1.46.71-2.54.71-1.32,0-2.32-.28-2.99-.87-.67-.59-1.16-1.61-1.46-3.07l-1.3.33c.16.67.28,1.32.35,1.97.08.63.12,1.26.12,1.87v.33l-.02.35c.73.28,1.46.49,2.24.63.77.14,1.52.22,2.26.22,2.28,0,4.06-.51,5.39-1.54,1.32-1.04,1.99-2.42,1.99-4.15,0-.96-.26-1.77-.77-2.46Z"/>
    <path class="st4" d="M176.32,89.4c-.59,0-1.12-.22-1.65-.67-.51-.45-1.32-1.52-2.44-3.27l-2.34-3.29c1.14-.51,1.99-1.12,2.56-1.83.57-.71.85-1.54.85-2.48,0-1.4-.57-2.52-1.71-3.33-1.14-.81-2.68-1.22-4.65-1.22-.3,0-.89,0-1.77.06-.87.04-1.61.06-2.19.06-.41,0-.89,0-1.44-.02-.55,0-1.26-.04-2.11-.08v1.06h.24c.67,0,1.12.14,1.36.45.24.28.37.93.37,1.95v3.68l-.04,2.66v2.13c0,1.85-.12,2.97-.35,3.41s-.67.65-1.32.65h-.28l-.18-.02v1.06l.04-.06c1.24-.06,2.05-.08,2.5-.1h.98c.69,0,1.34,0,1.99.02.65,0,1.3.04,1.95.08v-1.08h-.33c-.69,0-1.16-.16-1.4-.47-.24-.3-.37-1.08-.37-2.3v-3.17h1.1c.39,0,.81,0,1.3-.04.61.96,1.32,2.09,2.13,3.43.81,1.34,1.32,2.13,1.52,2.38.43.53.93.89,1.48,1.1.55.2,1.3.33,2.28.33.26,0,.59,0,.93-.02.37,0,.77-.04,1.26-.08v-1h-.14l-.14.02ZM168.07,81.74c-.3.02-.59.04-.87.06h-1.52c-.28,0-.65-.02-1.08-.06v-3.98h.02v-2.72c.26-.04.55-.08.83-.1.28-.02.59-.04.93-.04,1.12,0,2.01.3,2.68.91.67.61,1.02,1.42,1.02,2.42,0,.75-.16,1.42-.49,1.99-.33.57-.83,1.08-1.52,1.52Z"/>
    <path class="st4" d="M151.57,88.06c-.63.41-1.89.59-3.8.59-.63,0-1.22,0-1.75-.04-.53-.02-.98-.06-1.34-.12,0-1.02-.02-1.91-.04-2.64v-3.54h2.68c1.46,0,2.38.12,2.78.37.41.24.59.69.59,1.38v.14l1-.08c-.02-.47-.04-.87-.06-1.2-.02-.33,0-.61,0-.81s0-.63.04-1.22c.02-.59.04-1.1.04-1.5l-.87-.08c-.02.61-.2,1.02-.55,1.22-.35.22-1.06.33-2.15.33h-3.45c0-.87.02-1.81.04-2.76,0-.96.02-1.97.04-3.01.71-.02,1.3-.04,1.79-.06s.87,0,1.18,0c1.63,0,2.72.18,3.27.53.55.35.87,1.02.98,2.01l1.08-.14c-.08-.69-.16-1.36-.2-2.03s-.08-1.36-.1-2.03c-.87.06-1.81.1-2.8.12s-2.24.04-3.68.04c-.87,0-1.87,0-3.01-.04-1.14-.02-2.4-.06-3.74-.12v1.08l.02-.06h.26c.61,0,1.06.14,1.3.41.24.26.37.75.37,1.44v1.77c0,.37,0,1.02-.04,1.99v3.19l-.02,1.1v1.2c0,1.75-.12,2.8-.37,3.21-.24.41-.69.61-1.36.61h-.26l-.16-.02v1.06c.39,0,.93-.04,1.69-.06,2.13-.08,3.7-.1,4.67-.1.87,0,1.85,0,2.97.04,1.12.02,2.6.06,4.47.12.12-.65.28-1.32.47-2.01.18-.69.41-1.42.67-2.17l-1.1-.35c-.39,1.12-.89,1.89-1.52,2.28Z"/>
    <path class="st4" d="M132.37,87.96c-.61.41-1.93.61-3.92.61-.53,0-1.3-.04-2.32-.1h-.08l-.02-8.37v-2.44c0-1.4.12-2.3.37-2.68.24-.41.69-.59,1.36-.59h.18l.2.02v-1.08c-.79.04-1.48.06-2.07.08-.59,0-1.14.02-1.63.02s-1,0-1.61-.02c-.59,0-1.24-.04-1.91-.08v1.04h.24c.65,0,1.1.22,1.32.65.24.43.35,1.36.35,2.8v5.16c-.02.18-.02.47-.04.83,0,2.82-.14,4.45-.37,4.9-.1.2-.26.35-.51.43-.22.08-.57.12-1,.12h-.33v1.06c1-.04,1.99-.08,2.99-.1,1-.02,2.01-.04,2.99-.04s2.11,0,3.31.04c1.2.02,2.52.06,3.92.1.14-.75.3-1.48.51-2.22.2-.73.41-1.46.67-2.17l-1.1-.33c-.41,1.16-.91,1.95-1.52,2.36Z"/>
  </g>
</svg>